<svg width="280" height="168" fill="none" xmlns="http://www.w3.org/2000/svg"><path d="M176.464 23.348h-68.259v6.913h68.259v-6.913z" fill="#04425D"/><path d="M148.934 167.684h27.53V30.26h-27.53v137.424z" fill="#F05C4C"/><path d="M148.944 30.26H99.005v137.423h49.939V30.26z" fill="#FFDDD1"/><path d="M141.783 37.68h-35.626M141.783 44.135h-35.626M141.783 50.59h-35.626M141.783 57.035h-35.626M141.783 63.49h-35.626M141.783 69.944h-35.626M141.783 76.39h-35.626M141.783 82.844h-35.626M141.783 89.3h-35.626M141.783 95.745h-35.626M141.783 102.199h-35.626M141.783 108.654h-35.626M141.783 115.1h-35.626M141.783 121.554h-35.626M141.783 128.009h-35.626M141.783 134.464h-35.626M141.783 140.91h-35.626M141.783 147.364h-35.626M141.783 153.819h-35.626M141.783 160.264h-35.626" stroke="#04425D" stroke-width=".962" stroke-linecap="round" stroke-linejoin="round"/><path d="M137.048 112.454H80.674v26.476h56.374v-26.476z" fill="#F3CC4F"/><path d="M137.048 138.93H80.674v28.744h56.374V138.93z" fill="#0977AE"/><path d="M122.198 91.448H65.835l14.839 21.006h56.374l-14.85-21.006z" fill="#04425D"/><path d="M70.251 97.524c4.694 0 4.694 1.84 9.379 1.84s4.695-1.84 9.38-1.84c4.694 0 4.694 1.84 9.378 1.84 4.695 0 4.695-1.84 9.379-1.84 4.695 0 4.695 1.84 9.379 1.84 4.685 0 4.695-1.84 9.379-1.84M74.627 103.721c4.684 0 4.684 1.84 9.37 1.84 4.684 0 4.684-1.84 9.368-1.84 4.685 0 4.685 1.84 9.369 1.84 4.685 0 4.685-1.84 9.369-1.84 4.685 0 4.685 1.84 9.37 1.84 4.684 0 4.684-1.84 9.369-1.84" stroke="#0977AE" stroke-width=".962" stroke-linecap="round" stroke-linejoin="round"/><path d="M51.006 167.684h29.689v-55.221H51.006v55.221z" fill="#FFDDD1"/><path d="M65.835 146.051a6.14 6.14 0 016.136 6.136v15.496H59.708v-15.496a6.14 6.14 0 016.137-6.136h-.01z" fill="#04425D"/><path d="M71.981 120.44H59.718v17.634H71.98V120.44zM59.718 129.252H71.98M65.864 120.44v17.634" stroke="#04425D" stroke-width=".962" stroke-linecap="round" stroke-linejoin="round"/><path d="M80.674 112.454l-14.84-21.006-14.849 21.006h29.69z" fill="#F05C4C"/><path d="M158.939 66.762h-21.891v100.833h21.891V66.762z" fill="#04425D"/><path d="M158.939 167.674h65.544V66.752h-65.544v100.922z" fill="#FFDDD1"/><path d="M200.613 100.429h13.527V74.162h-13.527v26.267zM200.613 133.967h13.527V107.7h-13.527v26.267zM169.185 117.616h24.586V107.7h-24.586v9.916zM200.613 167.585h13.527v-26.267h-13.527v26.267zM169.185 151.233h24.586v-9.916h-24.586v9.916z" fill="#0977AE"/><path d="M158.939 100.429h65.544v-11.14h-65.544v11.14zM158.939 133.967h65.544v-11.139h-65.544v11.139z" fill="#F3CC4F"/><path d="M158.93 133.967h11.139v-11.139H158.93v11.139zM158.93 100.429h11.139v-11.14H158.93v11.14z" fill="#F4837B"/><path d="M169.185 148.061h24.586v-6.734h-24.586v6.734zM169.185 111.201h24.586v-3.491h-24.586v3.491z" fill="#04425D"/><path d="M169.185 84.088h24.586v-9.916h-24.586v9.916z" fill="#0977AE"/><path d="M169.185 79.125h24.586v-4.953h-24.586v4.953z" fill="#04425D"/><path d="M47.114 49.287c-.706.015-3.29.165-4.924 1.734-1.47 1.42-1.705 4.51-1.734 5.845-.028-1.335-.264-4.432-1.734-5.845-1.634-1.57-4.217-1.72-4.924-1.734.707-.014 3.29-.164 4.924-1.734 1.47-1.413 1.706-4.51 1.734-5.844.029 1.334.264 4.431 1.734 5.844 1.634 1.57 4.218 1.727 4.924 1.734zM33.198 99.44c-1.254.023-5.856.29-8.76 3.088-2.623 2.523-3.036 8.042-3.09 10.412-.053-2.37-.465-7.889-3.087-10.412-2.905-2.798-7.507-3.065-8.761-3.088 1.254-.023 5.856-.29 8.76-3.088 2.622-2.523 3.035-8.035 3.089-10.412.053 2.37.466 7.889 3.088 10.412 2.905 2.797 7.507 3.073 8.76 3.088z" fill="#F0C32F"/></svg>