<svg width="280" height="162" fill="none" xmlns="http://www.w3.org/2000/svg"><path d="M182.055 143.408h-65.101v17.903h65.101v-17.903z" fill="#000"/><path d="M195.322 153.431c-7.821-.975-18.012.601-23.645-1.384-2.237.133-4.459.098-6.661-.234-6.731-1.014-15.785-6.263-15.785-6.263l-11.896 15.768h64.966l.014-.077c2.676-.856 2.932-6.57-6.997-7.807l.004-.003z" fill="#FDC7B4"/><path d="M197.603 149.356c-8.346-1.01-17.222 2.163-25.927 2.687 5.633 1.985 15.824.413 23.645 1.384 9.931 1.237 9.673 6.947 6.996 7.807l-.014.077h16.613c2.674 0-10.822-10.69-21.313-11.959v.004z" fill="#000"/><path d="M74.434 157.82c-3.484.461-7.63.685-9.404 1.251-2.279.727-1.78 2.24.751 2.24h18.997" stroke="#000" stroke-width=".512" stroke-linecap="round" stroke-linejoin="round"/><path d="M123.649 127.284l33.682 16.768M149.049 139.911c-.647 5.57-4.257 13.831-8.381 17.815" stroke="#0977AE" stroke-width=".512" stroke-linecap="round" stroke-linejoin="round"/><path d="M167.245 161.315s-6.455-13.126-9.607-12.053c-3.152 1.076-9.789 4.169-20.301 3.781-4.33.44-23.162-1.517-32.116 3.114-4.218 2.18-3.396 4.668-2.365 5.154h64.392l-.003.004z" fill="#FDC7B4"/><path d="M105.222 156.16c8.953-4.63 27.786-2.677 32.116-3.114-6.025-.22-22.377-5.36-31.665-3.756-7.479 1.293-19.71 12.025-16.237 12.025h13.416c-1.027-.486-1.852-2.974 2.366-5.155h.004z" fill="#000"/><path d="M174.279 131.935l-26.147 15.95M154.115 144.236c1.674 5.179 6.476 14.367 9.313 16.998" stroke="#0977AE" stroke-width=".512" stroke-linecap="round" stroke-linejoin="round"/><path d="M123.914 100.029s-35.163 61.286-39.14 61.286H56.827c-1.974 0-3.428-1.209-3.012-1.779.416-.573 13.423-5.818 17.606-5.975 3.687-.137 12.172-.13 12.172-.13s8.464-26.374 12.182-34.74c2.758-6.207 8.248-9.023 8.248-9.023l7.751-22.286 12.144 12.647h-.004z" fill="#FDC7B4"/><path d="M167.244 117.621l9.034 18.022-23.781 16.988-33.077-17.4 9.369-17.61h38.455z" fill="#03364A"/><path d="M135.394 123.708c-.964 3.184-4.76 6.661-7.751 7.14M160.863 123.708c1.468 2.608 4.98 6.099 8.311 7.14M146.262 140.042s4.386-.493 4.386-6.109v-14.1h-4.386v20.209z" stroke="#0977AE" stroke-width=".512" stroke-linecap="round" stroke-linejoin="round"/><path d="M148.454 123.36a1.017 1.017 0 100-2.034 1.017 1.017 0 000 2.034z" stroke="#0977AE" stroke-width=".512" stroke-linecap="round" stroke-linejoin="round"/><path d="M190.184 124.499s-10.134-5.043-11.888-6.846c-1.888-1.943 9.872-10.023 13.028-5.812 3.155 4.208 5.661 8.954 5.661 8.954l-6.801 3.704z" fill="#FDC7B4"/><path d="M160.591 145.547c-3.072-1.003-50.375-25.808-57.456-27.339-6.412-1.387-12.416 3.142-15.3 9.299-2.47 5.277-3.057 14.195 4.055 18.732 13.388 8.533 60.038 13.328 60.038 13.328l8.666-14.02h-.003z" fill="#03364A"/><path d="M200.66 122.122c-12.025-.8-37.396 16.477-52.528 25.763.933 3.4 4.222 9.53 7.234 13.43h17.655c15.565-3.495 36.404-8.954 41.352-16.904 5.543-8.908-2.523-21.541-13.713-22.289z" fill="#03364A"/><path d="M153.025 24.37c-2.412-.206-4.767-1.066-7.755-1.65-5.266-1.027-7.671 2.39-9.173 5.976-4.299 10.26-.776 45.567-.776 45.567l35.289 2.25s-1.286-34.069-3.491-42.351c-2.101-7.89-7.919-9.271-14.094-9.796v.004z" fill="#000"/><path d="M186.175 97.503l3.453 14.094s-9.586 7.856-11.333 6.06c-1.887-1.943-7.315-19.494-7.315-19.494l15.195-.66zM156.279 46.575a460.263 460.263 0 00-2.117 11.801H142.43l-1.195-13.234s8.712-3.407 15.044 1.436v-.003z" fill="#FDC7B4"/><path d="M153.843 58.377c4.609 2.103 19.091 7.967 23.952 13.527 4.861 5.564 14.933 27.51 14.933 27.51-2.705 2.744-10.973 7.615-21.747 8.971-9.069-12.878-17.138-50.009-17.138-50.009z" fill="#F05C4C"/><path d="M175.79 90.747s-2.799 22.719-8.545 26.874c-8.89 3.173-31.528 3.173-38.458 0-6.871-6.682-7.168-24.344-7.168-24.344l20.804-34.898h11.417l21.946 32.371.004-.003z" fill="#F05C4C"/><path d="M142.426 58.377s-20.853 10.12-25.714 14.58c-4.861 4.458-12.727 20.394-12.727 20.394 3.306 4.658 14.08 12.326 20.244 14.51 15.733-16.163 18.197-49.485 18.197-49.485z" fill="#F05C4C"/><path d="M152.288 51.674l-10.62-1.734.5 5.529c4.399.014 8.666-2.107 10.12-3.792v-.003z" fill="#F4997B"/><path d="M148.883 25.904c-3.012-.115-6.175 1.09-7.642 3.729-1.468 2.638-1.94 6.832-2.618 10.208-.818 4.081-1.471 8.733 2.335 11.584 3.589 2.691 9.502 2.09 12.444-.51 3.156-2.792 3.638-6.821 3.953-9.711.314-2.89 1.827-7.769-.318-11.222-1.828-2.946-4.69-3.942-8.154-4.078z" fill="#FDC7B4"/><path d="M141.734 40.036a.758.758 0 100-1.516.758.758 0 000 1.516zM148.748 41.595a.758.758 0 100-1.516.758.758 0 000 1.516z" fill="#000"/><path d="M145.249 39.512c-.486 1.272-2.181 1.713-2.286 2.841-.066.717.483 1.437 1.003 1.604M147.993 45.303c-.566.744-1.492 1.296-2.527 1.272M149.583 37.178c.678.199 1.52.93 1.824 1.471M142.643 36.084c-.559 0-1.436.384-1.859.744" stroke="#000" stroke-width=".512" stroke-linecap="round" stroke-linejoin="round"/><path d="M139.124 35.5c3.012-1.44 6.612-3.582 8.946-6.014 1.105 2.67 4.103 6.133 7.248 8.398 0 0 .13 4.183 2.041 6.535 0 0 4.071-.783 4.554-7.437.482-6.619-5.487-11.34-10.554-11.717-5.067-.378-9.523 1.579-10.823 4.186-1.213 2.429-1.412 6.05-1.412 6.05z" fill="#000"/><path d="M156.16 42.283c1.947-1.999 4.609-1.995 5.333-.409.919 2.013-1.429 5.595-6.35 4.337l1.017-3.928z" fill="#FDC7B4"/><path d="M159.934 42.577c-1.035-.014-2.209.234-2.289.958-.081.723.744.992 1.167.548.583-.615-.322-1.625-1.01-.912" stroke="#000" stroke-width=".512" stroke-linecap="round" stroke-linejoin="round"/><path d="M136.251 61.47a340.6 340.6 0 016.179-3.09l5.423-2.593 6.308 2.593c1.566.713 3.953 1.863 7.028 3.282l-12.84 15.432-12.095-15.625h-.003z" fill="#FDC7B4"/><path d="M184.277 111.75c2.761-1.262 5.693-1.712 7.049.091 3.156 4.207 5.661 8.953 5.661 8.953" stroke="#F4997B" stroke-width=".512" stroke-linecap="round" stroke-linejoin="round"/><mask id="peaceOfMind_30f5fc3f__a" style="mask-type:alpha" maskUnits="userSpaceOnUse" x="103" y="58" width="90" height="63"><path d="M153.843 58.377c4.609 2.103 19.091 7.967 23.952 13.527 4.861 5.564 14.933 27.51 14.933 27.51-2.705 2.744-10.973 7.615-21.747 8.971-9.069-12.878-17.138-50.009-17.138-50.009z" fill="#F9625F"/><path d="M175.789 90.747s-2.799 22.719-8.544 26.874c-8.89 3.173-31.529 3.173-38.459 0-6.87-6.681-7.167-24.343-7.167-24.343l20.804-34.898h11.417l21.946 32.37.003-.003z" fill="#F9625F"/><path d="M142.426 58.377s-20.853 10.12-25.714 14.58c-4.861 4.458-12.727 20.394-12.727 20.394 3.306 4.658 14.08 12.326 20.244 14.51 15.733-16.163 18.197-49.485 18.197-49.485z" fill="#F9625F"/></mask><g mask="url(#peaceOfMind_30f5fc3f__a)" fill="#F9F9F6"><path d="M152.827 83.04a5.186 5.186 0 012.469-3.837l1.884 1.883a2.674 2.674 0 00-1.536 3.856 2.687 2.687 0 001.536 1.252l-1.884 1.884a5.183 5.183 0 01-2.469-5.032v-.006zM162.161 66.086a5.178 5.178 0 01-4.482.866l.06-2.662a2.686 2.686 0 003.142-.41c.345-.326.575-.721.708-1.145a2.692 2.692 0 00-.155-1.975l2.661.06a5.178 5.178 0 01-1.934 5.262v.004zM176.498 90.834a5.183 5.183 0 01-2.936 3.496l-1.628-2.105c.68-.12 1.28-.503 1.682-1.05.262-.353.439-.777.499-1.248a2.687 2.687 0 00-1.536-2.772l2.105-1.628a5.175 5.175 0 011.963 4.122c0 .2-.013.398-.038.597a5.335 5.335 0 01-.114.588h.003zM148.605 106.445a5.181 5.181 0 01-.218-4.558l2.626.44a2.688 2.688 0 00-.524 1.912c.047.439.205.872.48 1.255a2.692 2.692 0 003.009.992l-.439 2.627a5.187 5.187 0 01-4.615-2.156 4.997 4.997 0 01-.316-.509l-.003-.003zM131.252 99.845a5.184 5.184 0 01-3.884 2.399l-.885-2.51a2.688 2.688 0 002.794-1.494 2.68 2.68 0 00-.591-3.114l2.51-.885a5.193 5.193 0 01.056 5.61v-.006zM108.738 92.478a5.187 5.187 0 014.169-1.862l.544 2.608a2.683 2.683 0 00-3.398 2.386 2.68 2.68 0 00.601 1.89l-2.608.544a5.18 5.18 0 01.332-5.086c.111-.17.231-.329.357-.48h.003zM135.219 74.307a5.18 5.18 0 011.188 4.406l-2.658.133a2.68 2.68 0 00.101-1.98 2.717 2.717 0 00-.736-1.124 2.696 2.696 0 00-1.192-.623 2.696 2.696 0 00-1.96.297l-.132-2.658a5.186 5.186 0 014.504.746 4.682 4.682 0 01.885.803zM114.459 68.826a5.196 5.196 0 011.903-4.15l2.13 1.596a2.687 2.687 0 00-1.495 2.794c.067.468.253.888.519 1.239.411.54 1.018.91 1.697 1.024l-1.596 2.13a5.177 5.177 0 01-3.154-4.636l-.004.003zM165.233 79.93a1.204 1.204 0 100-2.409 1.204 1.204 0 000 2.409zM161.257 99.447a1.204 1.204 0 10.001-2.409 1.204 1.204 0 00-.001 2.409zM142.198 91.975a1.204 1.204 0 100-2.408 1.204 1.204 0 000 2.408zM121.369 85.278a1.204 1.204 0 100-2.408 1.204 1.204 0 000 2.408zM137.286 111.284a1.204 1.204 0 100-2.408 1.204 1.204 0 000 2.408z"/></g><path d="M121.916 97.481s.552 13.462 6.871 20.14M174.66 97.76s-2.048 15.084-7.415 19.861" stroke="#D72E14" stroke-width=".512" stroke-linecap="round" stroke-linejoin="round"/><path d="M192.099 120.567c2.698-1.024 10.344-.328 13.283.912 3.208 1.36 9.963 8.031 9.502 8.817-.695 1.185-2.778.385-2.778.385s-1.199.517-3.317-.039c-3.655-.957-9.205-6.43-11.148-5.116-.922.626 1.786 1.915 3.506 3.369 1.002.853 1.348 2.823.37 2.775-1.206-.06-12.7-4.739-13.601-5.955-.902-1.216 1.848-4.264 4.183-5.148z" fill="#FDC7B4"/><path d="M79.29 71.206c-.781-.016-3.637-.181-5.444-1.917-1.625-1.57-1.886-4.986-1.917-6.462-.032 1.476-.292 4.9-1.918 6.462-1.806 1.736-4.662 1.901-5.444 1.917.782.016 3.638.182 5.444 1.917 1.626 1.563 1.886 4.987 1.918 6.462.031-1.475.292-4.9 1.917-6.462 1.807-1.735 4.663-1.909 5.444-1.917zM62.16 14.762c-1.294-.024-6.044-.3-9.042-3.187-2.706-2.604-3.132-8.3-3.188-10.746-.055 2.445-.48 8.142-3.187 10.746-2.998 2.887-7.748 3.164-9.042 3.187 1.294.024 6.044.3 9.042 3.188 2.706 2.603 3.132 8.292 3.188 10.746.055-2.446.48-8.143 3.187-10.746 2.998-2.888 7.748-3.172 9.042-3.188z" fill="#F0C32F"/></svg>