<svg width="280" height="161" fill="none" xmlns="http://www.w3.org/2000/svg"><path d="M69.273 17.79h101.13a3.5 3.5 0 013.5 3.5v47.926a3.5 3.5 0 01-3.5 3.5H69.273a3.5 3.5 0 01-3.5-3.5V21.29a3.5 3.5 0 013.5-3.5z" fill="#EBEAE6" stroke="#EBEAE6"/><path d="M79.126 41.498l9.624-2.962 8.013 3.356 8.012-.709 8.012-10.718 8.012 2.052 8.012 9.88 8.012 4.013 8.018 1.405 8.012-7.205 9.624 4.884" stroke="#022C3B" stroke-miterlimit="10"/><path d="M82.356 54.195h-3.23v9.667h3.23v-9.667z" fill="#022C3B"/><path d="M90.368 46.944h-3.23v16.918h3.23V46.944z" fill="#F05C4C"/><path d="M98.38 56.825h-3.23v7.03h3.23v-7.03z" fill="#022C3B"/><path d="M106.393 50.665h-3.23v13.197h3.23V50.665z" fill="#F05C4C"/><path d="M114.405 41.02h-3.231v22.836h3.231V41.02z" fill="#022C3B"/><path d="M122.417 43.342h-3.23v20.514h3.23V43.342z" fill="#F05C4C"/><path d="M130.429 50.665h-3.23v13.197h3.23V50.665z" fill="#022C3B"/><path d="M138.441 54.195h-3.231v9.667h3.231v-9.667z" fill="#F05C4C"/><path d="M146.453 57.55h-3.23v6.306h3.23V57.55z" fill="#022C3B"/><path d="M154.465 54.195h-3.23v9.661h3.23v-9.661z" fill="#F05C4C"/><path d="M162.477 52.44h-3.23v11.416h3.23V52.44z" fill="#022C3B"/><path d="M75.112 26.644v37.212h89.453" stroke="#022C3B" stroke-miterlimit="10"/><path d="M269.479 50.678H154.618a4 4 0 00-4 4v58.447a4 4 0 004 4h114.861a4 4 0 004-4V54.678a4 4 0 00-4-4z" fill="#FFDDD1"/><path d="M164.516 107.203l11.06-13.734 7.068 6.863 11.242-11.917 10.16 10.08 21.353-19.372 14.141 12.502 6.444-7.23 20.017 22.808H164.516z" fill="#F05C4C"/><path d="M159.126 60.761h32.485M159.126 63.875h32.485M159.126 66.989h21.607M159.126 73.216h32.485M159.126 76.33h21.607" stroke="#022C3B" stroke-miterlimit="10"/><path d="M172.946 81.43H19.82a4 4 0 00-4 4v70.86a4 4 0 004 4h153.126a4 4 0 004-4V85.43a4 4 0 00-4-4z" fill="#C9DADE"/><path d="M33.156 119.174a29.512 29.512 0 012.817-11.411 29.064 29.064 0 015.61-8.02l20.167 20.669-28.594-1.23v-.017.009z" fill="#04425D"/><path d="M61.759 91.29c4.172 0 8.41.931 12.42 2.901 14.231 6.99 20.208 24.401 13.341 38.887a29.299 29.299 0 01-2.825 4.746l-22.952-17.395v-29.13h.008l.008-.009z" fill="#022C3B"/><path d="M61.75 120.42l22.953 17.395s-.033.042-.04.059c-7.84 10.679-22.088 14.727-34.417 9.2-.017 0-.033-.017-.05-.017L61.76 120.42h-.008z" fill="#F05C4C"/><path d="M50.189 147.058c-.294-.133-.58-.266-.874-.408-10.607-5.211-16.624-16.198-16.159-27.459l28.595 1.23-11.562 26.637z" fill="#F9AE94"/><path d="M41.583 99.752h.008a28.459 28.459 0 0112.289-7.33l7.863 27.999-20.168-20.67h.008z" fill="#0977AE"/><path d="M53.888 92.42a28.379 28.379 0 017.806-1.13h.065v29.131l-7.88-28h.009z" fill="#F3CC4F"/><path d="M119.464 98.098h39.293" stroke="#022C3B" stroke-miterlimit="10"/><path d="M116.002 96.484h-3.175v3.232h3.175v-3.232z" fill="#022C3B"/><path d="M119.464 107.203h39.293" stroke="#022C3B" stroke-miterlimit="10"/><path d="M116.002 105.589h-3.175v3.232h3.175v-3.232z" fill="#F05C4C"/><path d="M119.464 116.308h39.293" stroke="#022C3B" stroke-miterlimit="10"/><path d="M116.002 114.689h-3.175v3.232h3.175v-3.232z" fill="#F9AE94"/><path d="M119.464 125.413h39.293" stroke="#022C3B" stroke-miterlimit="10"/><path d="M116.002 123.794h-3.175v3.232h3.175v-3.232z" fill="#04425D"/><path d="M119.464 134.512h39.293" stroke="#022C3B" stroke-miterlimit="10"/><path d="M116.002 132.899h-3.175v3.232h3.175v-3.232z" fill="#0977AE"/><path d="M119.464 143.617h39.293" stroke="#022C3B" stroke-miterlimit="10"/><path d="M116.002 142.004h-3.175v3.232h3.175v-3.232z" fill="#F3CC4F"/><path d="M219.281 138.679c-.768-.016-3.574-.182-5.349-1.917-1.597-1.57-1.852-4.987-1.883-6.462-.031 1.475-.287 4.899-1.884 6.462-1.775 1.735-4.581 1.901-5.349 1.917.768.016 3.574.181 5.349 1.917 1.597 1.562 1.853 4.986 1.884 6.462.031-1.476.286-4.9 1.883-6.462 1.775-1.736 4.581-1.909 5.349-1.917z" fill="#F0C32F"/><path d="M46.176 45.215c-1.384-.022-6.446-.326-9.644-3.462-2.884-2.825-3.343-9.008-3.401-11.662-.059 2.654-.51 8.837-3.402 11.662-3.198 3.129-8.26 3.44-9.644 3.462 1.384.023 6.446.327 9.644 3.463 2.884 2.825 3.343 9.008 3.402 11.662.058-2.654.51-8.837 3.401-11.662 3.198-3.129 8.26-3.44 9.644-3.462z" fill="#F3CC4F"/></svg>